<svg version="1.1" xmlns="http://www.w3.org/2000/svg" xmlns:xlink="http://www.w3.org/1999/xlink" viewBox="0 240 550 175">
<desc>Created with Snap</desc><defs><rect width="10" height="10" class="svg---mgr"/></defs><circle cx="200" cy="200" r="10"/><rect x="200" y="100" width="100" height="100" rx="20" ry="20" stroke="#123456" fill="#ff0000" style="stroke-width: 20px; opacity: 0.3;"/><rect x="200" y="100" width="100" height="100" rx="20" ry="20" stroke="#123456" fill="#ff0000" style="stroke-width: 20px; opacity: 0.3;" transform="matrix(0.766,0.6428,-0.6428,0.766,275.3486,18.2336)"/><rect x="200" y="100" width="100" height="100" rx="20" ry="20" stroke="#123456" fill="#ff0000" style="stroke-width: 20px; opacity: 0.3;" transform="matrix(0.9397,0.342,-0.342,0.9397,180.4655,43.6574)"/><rect x="200" y="100" width="100" height="100" rx="20" ry="20" stroke="#123456" fill="#ff0000" style="stroke-width: 20px; opacity: 0.3;" transform="matrix(0.766,0.6428,-0.6428,0.766,175.3486,-81.7664)"/><rect x="200" y="100" width="100" height="100" rx="20" ry="20" stroke="#123456" fill="#ff0000" style="stroke-width: 20px; opacity: 0.3;" transform="matrix(0.9397,0.342,-0.342,0.9397,80.4655,-56.3426)"/><rect x="200" y="100" width="100" height="100" rx="20" ry="20" stroke="#123456" fill="#ff0000" style="stroke-width: 20px; opacity: 0.3;" transform="matrix(1,0,0,1,100,100)"/><text x="350" y="150">rotate around 200,200</text><text x="450" y="250">combined translate of 100,100 and rotate around 200,200</text>
<SCRIPT type="text/javascript" src="http://svg.dabbles.info/snap.svg.js"/></svg>